<svg width="20" height="20" viewBox="0 0 24 24" fill="none" xmlns="http://www.w3.org/2000/svg">
<mask id="mask0_1_1694" style="mask-type:alpha" maskUnits="userSpaceOnUse" x="0" y="0" width="24" height="24">
<rect width="24" height="24" fill="#D9D9D9"/>
</mask>
<g mask="url(#mask0_1_1694)">
<path d="M12.0002 23.142C11.6915 23.142 11.4327 23.0376 11.2238 22.8287C11.0149 22.6199 10.9105 22.361 10.9105 22.0523V21.142C8.81523 20.9047 7.0078 20.0242 5.48824 18.5007C3.96867 16.9771 3.09222 15.1737 2.85889 13.0904H1.94856C1.63981 13.0904 1.38101 12.9859 1.17216 12.7771C0.963312 12.5682 0.858887 12.3094 0.858887 12.0007C0.858887 11.6919 0.963303 11.4331 1.17214 11.2243C1.381 11.0154 1.63981 10.911 1.94856 10.911H2.85889C3.0962 8.81572 3.97664 7.00829 5.50019 5.48872C7.02374 3.96916 8.82718 3.09271 10.9105 2.85938V1.94905C10.9105 1.6403 11.0149 1.3815 11.2238 1.17265C11.4327 0.9638 11.6915 0.859375 12.0002 0.859375C12.3089 0.859375 12.5677 0.9638 12.7766 1.17265C12.9854 1.3815 13.0899 1.6403 13.0899 1.94905V2.85938C15.1732 3.09271 16.9766 3.96916 18.5002 5.48872C20.0237 7.00829 20.9042 8.81572 21.1415 10.911H22.0518C22.3606 10.911 22.6194 11.0154 22.8282 11.2243C23.0371 11.4331 23.1415 11.6919 23.1415 12.0007C23.1415 12.3094 23.0371 12.5682 22.8282 12.7771C22.6194 12.9859 22.3606 13.0904 22.0518 13.0904H21.1415C20.9082 15.1737 20.0317 16.9771 18.5121 18.5007C16.9926 20.0242 15.1851 20.9047 13.0899 21.142V22.0523C13.0899 22.361 12.9854 22.6198 12.7766 22.8287C12.5677 23.0375 12.3089 23.142 12.0002 23.142ZM12.0002 18.9289C13.9176 18.9289 15.5516 18.2536 16.9024 16.9029C18.2531 15.5521 18.9284 13.9181 18.9284 12.0007C18.9284 10.0833 18.2531 8.44923 16.9024 7.0985C15.5516 5.74778 13.9176 5.07242 12.0002 5.07242C10.0828 5.07242 8.44875 5.74778 7.09801 7.0985C5.7473 8.44923 5.07194 10.0833 5.07194 12.0007C5.07194 13.9181 5.7473 15.5521 7.09801 16.9029C8.44875 18.2536 10.0828 18.9289 12.0002 18.9289Z" fill="#848587"/>
</g>
</svg>
