<svg width="16" height="16" viewBox="0 0 24 24" fill="none" xmlns="http://www.w3.org/2000/svg">
<mask id="mask0_1_3026" style="mask-type:alpha" maskUnits="userSpaceOnUse" x="0" y="0" width="24" height="24">
<rect width="24" height="24" fill="#D9D9D9"/>
</mask>
<g mask="url(#mask0_1_3026)">
<path d="M9.54989 17.7128C9.40061 17.7128 9.25866 17.688 9.12406 17.6383C8.98946 17.5887 8.86619 17.5079 8.75424 17.3959L4.45424 13.0959C4.24301 12.8847 4.14156 12.6153 4.14989 12.2878C4.15822 11.9603 4.26801 11.6909 4.47924 11.4796C4.69047 11.2684 4.95768 11.1628 5.28086 11.1628C5.60405 11.1628 5.87126 11.2684 6.08249 11.4796L9.54989 14.947L17.9173 6.57964C18.1285 6.36841 18.3979 6.26179 18.7254 6.25979C19.053 6.25781 19.3243 6.36443 19.5396 6.57964C19.7508 6.79088 19.8564 7.06126 19.8564 7.39079C19.8564 7.72031 19.7508 7.99068 19.5396 8.20192L10.3455 17.3959C10.2336 17.5079 10.1103 17.5887 9.97571 17.6383C9.84111 17.688 9.69917 17.7128 9.54989 17.7128Z" fill="#FCFDFF"/>
</g>
</svg>
