<svg width="16" height="16" viewBox="0 0 24 24" fill="none" xmlns="http://www.w3.org/2000/svg">
<mask id="mask0_1_2552" style="mask-type:alpha" maskUnits="userSpaceOnUse" x="0" y="0" width="24" height="24">
<rect width="24" height="24" fill="#D9D9D9"/>
</mask>
<g mask="url(#mask0_1_2552)">
<path d="M19.956 21.1856C17.7781 21.1856 15.6573 20.7004 13.5938 19.7302C11.5302 18.7599 9.70092 17.4773 8.10598 15.8823C6.51105 14.2874 5.22844 12.4581 4.25816 10.3946C3.28788 8.33098 2.80273 6.21024 2.80273 4.03234C2.80273 3.67767 2.92095 3.38212 3.15738 3.14569C3.39382 2.90924 3.68937 2.79102 4.04403 2.79102H8.08806C8.41306 2.79102 8.69113 2.88395 8.92228 3.06982C9.15345 3.2557 9.29766 3.50516 9.35491 3.81819L9.99893 7.19267C10.0482 7.48977 10.044 7.75607 9.98643 7.99157C9.92882 8.22708 9.80309 8.43578 9.60926 8.61767L7.14838 11.0198C7.8165 12.1481 8.64883 13.2063 9.64538 14.1946C10.642 15.1828 11.7317 16.0383 12.9147 16.7611L15.3065 14.3872C15.5004 14.1974 15.7381 14.06 16.0196 13.975C16.3011 13.89 16.5884 13.8742 16.8815 13.9274L20.1701 14.6095C20.4871 14.6834 20.7376 14.8288 20.9215 15.0456C21.1054 15.2625 21.1973 15.5294 21.1973 15.8465V19.9383C21.1973 20.2947 21.0791 20.5917 20.8426 20.8292C20.6062 21.0668 20.3106 21.1856 19.956 21.1856ZM6.06088 8.89864L7.70491 7.30244L7.29186 5.06602H5.10871C5.18408 5.72147 5.29368 6.36846 5.43753 7.00699C5.58138 7.64552 5.78917 8.27607 6.06088 8.89864ZM18.9223 18.8486V16.6785L16.6919 16.2155L15.0288 17.8666C15.6549 18.1379 16.2945 18.355 16.9476 18.5177C17.6006 18.6803 18.2589 18.7907 18.9223 18.8486Z" fill="#00BD9D"/>
</g>
</svg>
