<svg width="16" height="16" viewBox="0 0 24 24" fill="none" xmlns="http://www.w3.org/2000/svg">
<mask id="mask0_1_2547" style="mask-type:alpha" maskUnits="userSpaceOnUse" x="0" y="0" width="24" height="24">
<rect width="24" height="24" fill="#D9D9D9"/>
</mask>
<g mask="url(#mask0_1_2547)">
<path d="M8.10178 15.0655H10.2572V12.0775H13.3447V14.6851L17.0301 10.9998L13.3447 7.30848V9.92205H9.1795C8.87624 9.92205 8.6208 10.0259 8.4132 10.2335C8.20558 10.4411 8.10178 10.6965 8.10178 10.9998V15.0655ZM12.0025 22.1791C11.719 22.1791 11.4396 22.1232 11.164 22.0112C10.8885 21.8992 10.6368 21.7293 10.4089 21.5014L2.49853 13.5911C2.27061 13.3632 2.10068 13.1117 1.98873 12.8368C1.87678 12.5618 1.8208 12.2821 1.8208 11.9977C1.8208 11.7132 1.87678 11.4342 1.98873 11.1607C2.10069 10.8871 2.27063 10.6364 2.49853 10.4085L10.4089 2.49815C10.6365 2.27025 10.8878 2.09933 11.1628 1.98538C11.4379 1.87143 11.7176 1.81445 12.0022 1.81445C12.2867 1.81445 12.566 1.87143 12.8401 1.98538C13.1142 2.09933 13.3646 2.27025 13.5915 2.49815L21.5018 10.4085C21.7297 10.6354 21.9006 10.886 22.0146 11.1602C22.1285 11.4344 22.1855 11.7134 22.1855 11.9971C22.1855 12.2808 22.1285 12.5604 22.0146 12.8359C21.9006 13.1114 21.7297 13.3631 21.5018 13.5911L13.5915 21.5014C13.3636 21.7293 13.1126 21.8992 12.8386 22.0112C12.5646 22.1232 12.2859 22.1791 12.0025 22.1791ZM8.05395 15.946L12.0002 19.8982L19.8985 11.9998L12.0002 4.1014L4.10178 11.9998L8.05395 15.946Z" fill="#939396"/>
</g>
</svg>
