<svg width="16" height="16" viewBox="0 0 24 24" fill="none" xmlns="http://www.w3.org/2000/svg">
<mask id="mask0_1_2537" style="mask-type:alpha" maskUnits="userSpaceOnUse" x="0" y="0" width="24" height="24">
<rect width="24" height="24" fill="#D9D9D9"/>
</mask>
<g mask="url(#mask0_1_2537)">
<path d="M11.9998 16.1578C13.598 14.8563 14.808 13.6029 15.6297 12.3974C16.4514 11.192 16.8623 10.0626 16.8623 9.00924C16.8623 8.10174 16.6965 7.32778 16.3648 6.68738C16.0331 6.04698 15.6232 5.52859 15.1351 5.13221C14.6471 4.73584 14.1201 4.44798 13.5542 4.26863C12.9883 4.08928 12.4709 3.99961 12.0021 3.99961C11.5332 3.99961 11.015 4.08928 10.4476 4.26863C9.88025 4.44798 9.35253 4.73584 8.86448 5.13221C8.37643 5.52859 7.96656 6.0472 7.63486 6.68803C7.30315 7.32888 7.1373 8.10358 7.1373 9.01211C7.1373 10.0636 7.54817 11.192 8.3699 12.3974C9.19165 13.6029 10.4016 14.8563 11.9998 16.1578ZM11.9998 18.6197C11.8259 18.6197 11.6583 18.5939 11.4971 18.5423C11.3358 18.4906 11.1889 18.4152 11.0563 18.3159C8.973 16.6833 7.41982 15.097 6.3968 13.5569C5.3738 12.0169 4.8623 10.5019 4.8623 9.01211C4.8623 7.80884 5.07897 6.75245 5.5123 5.84293C5.94565 4.93342 6.50221 4.17265 7.18196 3.56063C7.86171 2.94863 8.62642 2.48963 9.4761 2.18361C10.3258 1.87761 11.167 1.72461 11.9997 1.72461C12.8324 1.72461 13.6736 1.87761 14.5233 2.18361C15.373 2.48963 16.1378 2.94863 16.8176 3.56063C17.4973 4.17265 18.0539 4.93342 18.4873 5.84293C18.9206 6.75245 19.1373 7.80884 19.1373 9.01211C19.1373 10.5019 18.6258 12.0169 17.6028 13.5569C16.5798 15.097 15.0266 16.6833 12.9433 18.3159C12.8234 18.4152 12.6796 18.4906 12.512 18.5423C12.3445 18.5939 12.1737 18.6197 11.9998 18.6197ZM12.002 10.9996C12.5904 10.9996 13.0934 10.7901 13.511 10.3711C13.9285 9.95207 14.1373 9.44835 14.1373 8.85994C14.1373 8.27154 13.9282 7.76854 13.51 7.35096C13.0918 6.93339 12.5891 6.72461 12.0019 6.72461C11.4146 6.72461 10.9112 6.9337 10.4917 7.35188C10.0721 7.77008 9.8623 8.2728 9.8623 8.86003C9.8623 9.44729 10.0718 9.95069 10.4908 10.3703C10.9098 10.7898 11.4136 10.9996 12.002 10.9996ZM5.9998 22.2746C5.6806 22.2746 5.41122 22.1648 5.19165 21.9453C4.97209 21.7257 4.8623 21.4563 4.8623 21.1371C4.8623 20.8179 4.97209 20.5485 5.19165 20.329C5.41122 20.1094 5.6806 19.9996 5.9998 19.9996H17.9998C18.319 19.9996 18.5884 20.1094 18.808 20.329C19.0275 20.5485 19.1373 20.8179 19.1373 21.1371C19.1373 21.4563 19.0275 21.7257 18.808 21.9453C18.5884 22.1648 18.319 22.2746 17.9998 22.2746H5.9998Z" fill="#00BD9D"/>
</g>
</svg>
