<svg width="20" height="20" viewBox="0 0 24 24" fill="none" xmlns="http://www.w3.org/2000/svg">
<mask id="mask0_1_2542" style="mask-type:alpha" maskUnits="userSpaceOnUse" x="0" y="0" width="24" height="24">
<rect width="24" height="24" fill="#D9D9D9"/>
</mask>
<g mask="url(#mask0_1_2542)">
<path d="M13.0898 11.5523V8.11973C13.0898 7.81098 12.9854 7.55217 12.7766 7.34332C12.5677 7.13447 12.3089 7.03005 12.0001 7.03005C11.6914 7.03005 11.4326 7.13447 11.2238 7.34332C11.0149 7.55217 10.9105 7.81098 10.9105 8.11973V11.9572C10.9105 12.1105 10.9385 12.2567 10.9945 12.3959C11.0504 12.5352 11.1344 12.6605 11.2464 12.7719L14.4507 15.9762C14.6539 16.1795 14.9072 16.2811 15.2105 16.2811C15.5137 16.2811 15.769 16.1795 15.9762 15.9762C16.1835 15.773 16.2871 15.5177 16.2871 15.2105C16.2871 14.9032 16.1835 14.646 15.9762 14.4387L13.0898 11.5523ZM12.0001 22.2034C10.5849 22.2034 9.25706 21.9358 8.01652 21.4005C6.77599 20.8652 5.6969 20.1387 4.77925 19.2211C3.8616 18.3034 3.13512 17.2243 2.59982 15.9838C2.06452 14.7432 1.79688 13.4154 1.79688 12.0001C1.79688 10.5849 2.06452 9.25706 2.59982 8.01653C3.13512 6.77599 3.8616 5.6969 4.77925 4.77925C5.6969 3.8616 6.77599 3.13512 8.01652 2.59982C9.25706 2.06452 10.5849 1.79688 12.0001 1.79688C13.4154 1.79688 14.7432 2.06452 15.9838 2.59982C17.2243 3.13512 18.3034 3.8616 19.2211 4.77925C20.1387 5.6969 20.8652 6.77599 21.4005 8.01653C21.9358 9.25706 22.2034 10.5849 22.2034 12.0001C22.2034 13.4154 21.9358 14.7432 21.4005 15.9838C20.8652 17.2243 20.1387 18.3034 19.2211 19.2211C18.3034 20.1387 17.2243 20.8652 15.9838 21.4005C14.7432 21.9358 13.4154 22.2034 12.0001 22.2034ZM12.0001 19.9284C14.1969 19.9284 16.0674 19.1572 17.6118 17.6148C19.1562 16.0724 19.9284 14.2009 19.9284 12.0001C19.9284 9.79943 19.1562 7.92788 17.6119 6.38548C16.0675 4.84309 14.197 4.0719 12.0002 4.0719C9.80343 4.0719 7.93286 4.84309 6.38847 6.38548C4.84409 7.92788 4.0719 9.79943 4.0719 12.0001C4.0719 14.2009 4.84408 16.0724 6.38843 17.6148C7.93276 19.1572 9.80332 19.9284 12.0001 19.9284Z" fill="#00BD9D"/>
</g>
</svg>
